<svg width="266" height="17" viewBox="0 0 266 17" fill="none" xmlns="http://www.w3.org/2000/svg">
<path d="M0.613636 8.90909V8L7.93182 4.27273V5.72727L2.31818 8.43182L2.36364 8.34091V8.56818L2.31818 8.47727L7.93182 11.1818V12.6364L0.613636 8.90909ZM10.7741 16.2727V4.27273H12.0696V5.65909H12.2287C12.3272 5.50758 12.4635 5.31439 12.6378 5.07955C12.8158 4.84091 13.0696 4.62879 13.3991 4.44318C13.7325 4.25379 14.1832 4.15909 14.7514 4.15909C15.4863 4.15909 16.134 4.3428 16.6946 4.71023C17.2552 5.07765 17.6927 5.59848 18.0071 6.27273C18.3215 6.94697 18.4787 7.74242 18.4787 8.65909C18.4787 9.58333 18.3215 10.3845 18.0071 11.0625C17.6927 11.7367 17.2571 12.2595 16.7003 12.6307C16.1435 12.9981 15.5014 13.1818 14.7741 13.1818C14.2135 13.1818 13.7647 13.089 13.4276 12.9034C13.0904 12.714 12.831 12.5 12.6491 12.2614C12.4673 12.0189 12.3272 11.8182 12.2287 11.6591H12.1151V16.2727H10.7741ZM12.0923 8.63636C12.0923 9.29545 12.1889 9.87689 12.3821 10.3807C12.5753 10.8807 12.8575 11.2727 13.2287 11.5568C13.5999 11.8371 14.0545 11.9773 14.5923 11.9773C15.1529 11.9773 15.6207 11.8295 15.9957 11.5341C16.3745 11.2348 16.6586 10.8333 16.848 10.3295C17.0412 9.82197 17.1378 9.25758 17.1378 8.63636C17.1378 8.02273 17.0431 7.4697 16.8537 6.97727C16.6681 6.48106 16.3859 6.08902 16.0071 5.80114C15.6321 5.50947 15.1605 5.36364 14.5923 5.36364C14.0469 5.36364 13.5885 5.50189 13.2173 5.77841C12.8461 6.05114 12.5658 6.43371 12.3764 6.92614C12.187 7.41477 12.0923 7.98485 12.0923 8.63636ZM64.0384 7.38636V6.15909H71.0384V7.38636H64.0384ZM64.0384 10.75V9.52273H71.0384V10.75H64.0384ZM215.713 8.90909L208.395 12.6364V11.1818L214.009 8.47727L213.963 8.56818V8.34091L214.009 8.43182L208.395 5.72727V4.27273L215.713 8V8.90909ZM219.533 13.0909C219.252 13.0909 219.012 12.9905 218.811 12.7898C218.61 12.589 218.51 12.3485 218.51 12.0682C218.51 11.7879 218.61 11.5473 218.811 11.3466C219.012 11.1458 219.252 11.0455 219.533 11.0455C219.813 11.0455 220.054 11.1458 220.254 11.3466C220.455 11.5473 220.555 11.7879 220.555 12.0682C220.555 12.2538 220.508 12.4242 220.413 12.5795C220.322 12.7348 220.199 12.8598 220.044 12.9545C219.893 13.0455 219.722 13.0909 219.533 13.0909ZM223.939 13.0909C223.659 13.0909 223.418 12.9905 223.217 12.7898C223.017 12.589 222.916 12.3485 222.916 12.0682C222.916 11.7879 223.017 11.5473 223.217 11.3466C223.418 11.1458 223.659 11.0455 223.939 11.0455C224.219 11.0455 224.46 11.1458 224.661 11.3466C224.861 11.5473 224.962 11.7879 224.962 12.0682C224.962 12.2538 224.914 12.4242 224.82 12.5795C224.729 12.7348 224.606 12.8598 224.45 12.9545C224.299 13.0455 224.128 13.0909 223.939 13.0909ZM228.345 13.0909C228.065 13.0909 227.824 12.9905 227.624 12.7898C227.423 12.589 227.322 12.3485 227.322 12.0682C227.322 11.7879 227.423 11.5473 227.624 11.3466C227.824 11.1458 228.065 11.0455 228.345 11.0455C228.625 11.0455 228.866 11.1458 229.067 11.3466C229.268 11.5473 229.368 11.7879 229.368 12.0682C229.368 12.2538 229.321 12.4242 229.226 12.5795C229.135 12.7348 229.012 12.8598 228.857 12.9545C228.705 13.0455 228.535 13.0909 228.345 13.0909ZM232.161 8.90909V8L239.479 4.27273V5.72727L233.865 8.43182L233.911 8.34091V8.56818L233.865 8.47727L239.479 11.1818V12.6364L232.161 8.90909ZM246.435 0.818181L242.685 14.75H241.457L245.207 0.818181H246.435ZM248.024 16.2727V4.27273H249.32V5.65909H249.479C249.577 5.50758 249.714 5.31439 249.888 5.07955C250.066 4.84091 250.32 4.62879 250.649 4.44318C250.982 4.25379 251.433 4.15909 252.001 4.15909C252.736 4.15909 253.384 4.3428 253.945 4.71023C254.505 5.07765 254.943 5.59848 255.257 6.27273C255.571 6.94697 255.729 7.74242 255.729 8.65909C255.729 9.58333 255.571 10.3845 255.257 11.0625C254.943 11.7367 254.507 12.2595 253.95 12.6307C253.393 12.9981 252.751 13.1818 252.024 13.1818C251.464 13.1818 251.015 13.089 250.678 12.9034C250.34 12.714 250.081 12.5 249.899 12.2614C249.717 12.0189 249.577 11.8182 249.479 11.6591H249.365V16.2727H248.024ZM249.342 8.63636C249.342 9.29545 249.439 9.87689 249.632 10.3807C249.825 10.8807 250.107 11.2727 250.479 11.5568C250.85 11.8371 251.304 11.9773 251.842 11.9773C252.403 11.9773 252.871 11.8295 253.246 11.5341C253.625 11.2348 253.909 10.8333 254.098 10.3295C254.291 9.82197 254.388 9.25758 254.388 8.63636C254.388 8.02273 254.293 7.4697 254.104 6.97727C253.918 6.48106 253.636 6.08902 253.257 5.80114C252.882 5.50947 252.411 5.36364 251.842 5.36364C251.297 5.36364 250.839 5.50189 250.467 5.77841C250.096 6.05114 249.816 6.43371 249.626 6.92614C249.437 7.41477 249.342 7.98485 249.342 8.63636ZM265.479 8.90909L258.161 12.6364V11.1818L263.774 8.47727L263.729 8.56818V8.34091L263.774 8.43182L258.161 5.72727V4.27273L265.479 8V8.90909Z" fill="#131416"/>
<path d="M28.5696 13.1818C27.7514 13.1818 27.0469 12.9886 26.456 12.6023C25.8651 12.2159 25.4105 11.6837 25.0923 11.0057C24.7741 10.3277 24.6151 9.55303 24.6151 8.68182C24.6151 7.79545 24.7779 7.01326 25.1037 6.33523C25.4332 5.65341 25.8916 5.12121 26.4787 4.73864C27.0696 4.35227 27.759 4.15909 28.5469 4.15909C29.1605 4.15909 29.7135 4.27273 30.206 4.5C30.6984 4.72727 31.1018 5.04545 31.4162 5.45455C31.7306 5.86364 31.9257 6.34091 32.0014 6.88636H30.6605C30.5582 6.48864 30.331 6.13636 29.9787 5.82955C29.6302 5.51894 29.1605 5.36364 28.5696 5.36364C28.0469 5.36364 27.5885 5.5 27.1946 5.77273C26.8045 6.04167 26.4995 6.42235 26.2798 6.91477C26.0639 7.40341 25.956 7.97727 25.956 8.63636C25.956 9.31061 26.062 9.89773 26.2741 10.3977C26.4901 10.8977 26.7931 11.286 27.1832 11.5625C27.5772 11.839 28.0393 11.9773 28.5696 11.9773C28.9181 11.9773 29.2344 11.9167 29.5185 11.7955C29.8026 11.6742 30.0431 11.5 30.2401 11.2727C30.437 11.0455 30.5772 10.7727 30.6605 10.4545H32.0014C31.9257 10.9697 31.7382 11.4337 31.4389 11.8466C31.1435 12.2557 30.7514 12.5814 30.2628 12.8239C29.7779 13.0625 29.2135 13.1818 28.5696 13.1818ZM35.3026 1.36364V13H33.9616V1.36364H35.3026ZM40.3267 13.2045C39.7737 13.2045 39.2718 13.1004 38.821 12.892C38.3703 12.6799 38.0123 12.375 37.7472 11.9773C37.482 11.5758 37.3494 11.0909 37.3494 10.5227C37.3494 10.0227 37.4479 9.61742 37.6449 9.30682C37.8419 8.99242 38.1051 8.74621 38.4347 8.56818C38.7642 8.39015 39.1278 8.25758 39.5256 8.17045C39.9271 8.07955 40.3305 8.00758 40.7358 7.95455C41.2661 7.88636 41.696 7.83523 42.0256 7.80114C42.3589 7.76326 42.6013 7.70076 42.7528 7.61364C42.9081 7.52652 42.9858 7.375 42.9858 7.15909V7.11364C42.9858 6.55303 42.8324 6.11742 42.5256 5.80682C42.2225 5.49621 41.7623 5.34091 41.1449 5.34091C40.5047 5.34091 40.0028 5.48106 39.6392 5.76136C39.2756 6.04167 39.0199 6.34091 38.8722 6.65909L37.5994 6.20455C37.8267 5.67424 38.1297 5.26136 38.5085 4.96591C38.8911 4.66667 39.3078 4.45833 39.7585 4.34091C40.2131 4.2197 40.66 4.15909 41.0994 4.15909C41.3797 4.15909 41.7017 4.19318 42.0653 4.26136C42.4328 4.32576 42.7869 4.46023 43.1278 4.66477C43.4725 4.86932 43.7585 5.17803 43.9858 5.59091C44.2131 6.00379 44.3267 6.55682 44.3267 7.25V13H42.9858V11.8182H42.9176C42.8267 12.0076 42.6752 12.2102 42.4631 12.4261C42.2509 12.642 41.9688 12.8258 41.6165 12.9773C41.2642 13.1288 40.8343 13.2045 40.3267 13.2045ZM40.5312 12C41.0616 12 41.5085 11.8958 41.8722 11.6875C42.2396 11.4792 42.5161 11.2102 42.7017 10.8807C42.8911 10.5511 42.9858 10.2045 42.9858 9.84091V8.61364C42.929 8.68182 42.804 8.74432 42.6108 8.80114C42.4214 8.85417 42.2017 8.90151 41.9517 8.94318C41.7055 8.98106 41.465 9.01515 41.2301 9.04545C40.9991 9.07197 40.8116 9.0947 40.6676 9.11364C40.3191 9.15909 39.9934 9.23295 39.6903 9.33523C39.3911 9.43371 39.1487 9.58333 38.9631 9.78409C38.7813 9.98106 38.6903 10.25 38.6903 10.5909C38.6903 11.0568 38.8627 11.4091 39.2074 11.6477C39.5559 11.8826 39.9972 12 40.5312 12ZM52.956 6.22727L51.7514 6.56818C51.6757 6.36742 51.5639 6.17235 51.4162 5.98295C51.2723 5.78977 51.0753 5.63068 50.8253 5.50568C50.5753 5.38068 50.2552 5.31818 49.8651 5.31818C49.331 5.31818 48.8859 5.44129 48.5298 5.6875C48.1776 5.92992 48.0014 6.23864 48.0014 6.61364C48.0014 6.94697 48.1226 7.21023 48.3651 7.40341C48.6075 7.59659 48.9863 7.75758 49.5014 7.88636L50.7969 8.20455C51.5772 8.39394 52.1586 8.68371 52.5412 9.07386C52.9238 9.46023 53.1151 9.95833 53.1151 10.5682C53.1151 11.0682 52.9711 11.5152 52.6832 11.9091C52.3991 12.303 52.0014 12.6136 51.4901 12.8409C50.9787 13.0682 50.384 13.1818 49.706 13.1818C48.8158 13.1818 48.0791 12.9886 47.4957 12.6023C46.9124 12.2159 46.5431 11.6515 46.3878 10.9091L47.6605 10.5909C47.7817 11.0606 48.0109 11.4129 48.348 11.6477C48.6889 11.8826 49.134 12 49.6832 12C50.3082 12 50.8045 11.8674 51.1719 11.6023C51.5431 11.3333 51.7287 11.0114 51.7287 10.6364C51.7287 10.3333 51.6226 10.0795 51.4105 9.875C51.1984 9.66667 50.8726 9.51136 50.4332 9.40909L48.9787 9.06818C48.1795 8.87879 47.5923 8.58523 47.2173 8.1875C46.8461 7.78598 46.6605 7.28409 46.6605 6.68182C46.6605 6.18939 46.7988 5.75379 47.0753 5.375C47.3556 4.99621 47.7363 4.69886 48.2173 4.48295C48.7022 4.26705 49.2514 4.15909 49.8651 4.15909C50.7287 4.15909 51.4067 4.34848 51.8991 4.72727C52.3954 5.10606 52.7476 5.60606 52.956 6.22727ZM61.3153 6.22727L60.1108 6.56818C60.035 6.36742 59.9233 6.17235 59.7756 5.98295C59.6316 5.78977 59.4347 5.63068 59.1847 5.50568C58.9347 5.38068 58.6146 5.31818 58.2244 5.31818C57.6903 5.31818 57.2453 5.44129 56.8892 5.6875C56.5369 5.92992 56.3608 6.23864 56.3608 6.61364C56.3608 6.94697 56.482 7.21023 56.7244 7.40341C56.9669 7.59659 57.3456 7.75758 57.8608 7.88636L59.1562 8.20455C59.9366 8.39394 60.518 8.68371 60.9006 9.07386C61.2831 9.46023 61.4744 9.95833 61.4744 10.5682C61.4744 11.0682 61.3305 11.5152 61.0426 11.9091C60.7585 12.303 60.3608 12.6136 59.8494 12.8409C59.3381 13.0682 58.7434 13.1818 58.0653 13.1818C57.1752 13.1818 56.4384 12.9886 55.8551 12.6023C55.2718 12.2159 54.9025 11.6515 54.7472 10.9091L56.0199 10.5909C56.1411 11.0606 56.3703 11.4129 56.7074 11.6477C57.0483 11.8826 57.4934 12 58.0426 12C58.6676 12 59.1638 11.8674 59.5312 11.6023C59.9025 11.3333 60.0881 11.0114 60.0881 10.6364C60.0881 10.3333 59.982 10.0795 59.7699 9.875C59.5578 9.66667 59.232 9.51136 58.7926 9.40909L57.3381 9.06818C56.5388 8.87879 55.9517 8.58523 55.5767 8.1875C55.2055 7.78598 55.0199 7.28409 55.0199 6.68182C55.0199 6.18939 55.1581 5.75379 55.4347 5.375C55.715 4.99621 56.0956 4.69886 56.5767 4.48295C57.0616 4.26705 57.6108 4.15909 58.2244 4.15909C59.0881 4.15909 59.7661 4.34848 60.2585 4.72727C60.7547 5.10606 61.107 5.60606 61.3153 6.22727Z" fill="#58B27C"/>
<path d="M75.1989 1.36364V5.36364H73.9489V1.36364H75.1989ZM78.108 1.36364V5.36364H76.858V1.36364H78.108ZM84.3793 4.27273V5.40909H79.6747V4.27273H84.3793ZM81.0838 13V3.06818C81.0838 2.56818 81.2012 2.15151 81.4361 1.81818C81.6709 1.48485 81.9759 1.23485 82.3509 1.06818C82.7259 0.901514 83.1217 0.818181 83.5384 0.818181C83.8679 0.818181 84.1368 0.844696 84.3452 0.897727C84.5535 0.950757 84.7088 0.999999 84.8111 1.04545L84.4247 2.20455C84.3565 2.18182 84.2618 2.15341 84.1406 2.11932C84.0232 2.08523 83.8679 2.06818 83.6747 2.06818C83.2315 2.06818 82.9115 2.17992 82.7145 2.40341C82.5213 2.62689 82.4247 2.95455 82.4247 3.38636V13H81.0838ZM89.4446 13.1818C88.6567 13.1818 87.9654 12.9943 87.3707 12.6193C86.7798 12.2443 86.3177 11.7197 85.9844 11.0455C85.6548 10.3712 85.4901 9.58333 85.4901 8.68182C85.4901 7.77273 85.6548 6.97917 85.9844 6.30114C86.3177 5.62311 86.7798 5.09659 87.3707 4.72159C87.9654 4.34659 88.6567 4.15909 89.4446 4.15909C90.2325 4.15909 90.9219 4.34659 91.5128 4.72159C92.1075 5.09659 92.5696 5.62311 92.8991 6.30114C93.2325 6.97917 93.3991 7.77273 93.3991 8.68182C93.3991 9.58333 93.2325 10.3712 92.8991 11.0455C92.5696 11.7197 92.1075 12.2443 91.5128 12.6193C90.9219 12.9943 90.2325 13.1818 89.4446 13.1818ZM89.4446 11.9773C90.0431 11.9773 90.5355 11.8239 90.9219 11.517C91.3082 11.2102 91.5942 10.8068 91.7798 10.3068C91.9654 9.80682 92.0582 9.26515 92.0582 8.68182C92.0582 8.09848 91.9654 7.55492 91.7798 7.05114C91.5942 6.54735 91.3082 6.14015 90.9219 5.82955C90.5355 5.51894 90.0431 5.36364 89.4446 5.36364C88.8461 5.36364 88.3537 5.51894 87.9673 5.82955C87.581 6.14015 87.295 6.54735 87.1094 7.05114C86.9238 7.55492 86.831 8.09848 86.831 8.68182C86.831 9.26515 86.9238 9.80682 87.1094 10.3068C87.295 10.8068 87.581 11.2102 87.9673 11.517C88.3537 11.8239 88.8461 11.9773 89.4446 11.9773ZM96.7869 7.75V13H95.446V4.27273H96.7415V5.63636H96.8551C97.0597 5.19318 97.3703 4.83712 97.7869 4.56818C98.2036 4.29545 98.7415 4.15909 99.4006 4.15909C99.9915 4.15909 100.509 4.2803 100.952 4.52273C101.395 4.76136 101.74 5.125 101.986 5.61364C102.232 6.09848 102.355 6.71212 102.355 7.45455V13H101.014V7.54545C101.014 6.85985 100.836 6.32576 100.48 5.94318C100.124 5.55682 99.6354 5.36364 99.0142 5.36364C98.5862 5.36364 98.2036 5.45644 97.8665 5.64205C97.5331 5.82765 97.2699 6.09848 97.0767 6.45455C96.8835 6.81061 96.7869 7.24242 96.7869 7.75ZM108.601 4.27273V5.40909H104.078V4.27273H108.601ZM105.396 2.18182H106.737V10.5C106.737 10.8788 106.792 11.1629 106.902 11.3523C107.016 11.5379 107.16 11.6629 107.334 11.7273C107.512 11.7879 107.699 11.8182 107.896 11.8182C108.044 11.8182 108.165 11.8106 108.26 11.7955C108.355 11.7765 108.43 11.7614 108.487 11.75L108.76 12.9545C108.669 12.9886 108.542 13.0227 108.379 13.0568C108.216 13.0947 108.01 13.1136 107.76 13.1136C107.381 13.1136 107.01 13.0322 106.646 12.8693C106.286 12.7064 105.987 12.4583 105.749 12.125C105.514 11.7917 105.396 11.3712 105.396 10.8636V2.18182ZM110.987 13V1.36364H117.964V2.61364H112.396V6.54545H117.442V7.79545H112.396V13H110.987ZM122.764 13.2045C122.211 13.2045 121.709 13.1004 121.259 12.892C120.808 12.6799 120.45 12.375 120.185 11.9773C119.92 11.5758 119.787 11.0909 119.787 10.5227C119.787 10.0227 119.885 9.61742 120.082 9.30682C120.279 8.99242 120.543 8.74621 120.872 8.56818C121.202 8.39015 121.565 8.25758 121.963 8.17045C122.365 8.07955 122.768 8.00758 123.173 7.95455C123.704 7.88636 124.134 7.83523 124.463 7.80114C124.796 7.76326 125.039 7.70076 125.19 7.61364C125.346 7.52652 125.423 7.375 125.423 7.15909V7.11364C125.423 6.55303 125.27 6.11742 124.963 5.80682C124.66 5.49621 124.2 5.34091 123.582 5.34091C122.942 5.34091 122.44 5.48106 122.077 5.76136C121.713 6.04167 121.457 6.34091 121.31 6.65909L120.037 6.20455C120.264 5.67424 120.567 5.26136 120.946 4.96591C121.329 4.66667 121.745 4.45833 122.196 4.34091C122.651 4.2197 123.098 4.15909 123.537 4.15909C123.817 4.15909 124.139 4.19318 124.503 4.26136C124.87 4.32576 125.224 4.46023 125.565 4.66477C125.91 4.86932 126.196 5.17803 126.423 5.59091C126.651 6.00379 126.764 6.55682 126.764 7.25V13H125.423V11.8182H125.355C125.264 12.0076 125.113 12.2102 124.901 12.4261C124.688 12.642 124.406 12.8258 124.054 12.9773C123.702 13.1288 123.272 13.2045 122.764 13.2045ZM122.969 12C123.499 12 123.946 11.8958 124.31 11.6875C124.677 11.4792 124.954 11.2102 125.139 10.8807C125.329 10.5511 125.423 10.2045 125.423 9.84091V8.61364C125.366 8.68182 125.241 8.74432 125.048 8.80114C124.859 8.85417 124.639 8.90151 124.389 8.94318C124.143 8.98106 123.902 9.01515 123.668 9.04545C123.437 9.07197 123.249 9.0947 123.105 9.11364C122.757 9.15909 122.431 9.23295 122.128 9.33523C121.829 9.43371 121.586 9.58333 121.401 9.78409C121.219 9.98106 121.128 10.25 121.128 10.5909C121.128 11.0568 121.3 11.4091 121.645 11.6477C121.993 11.8826 122.435 12 122.969 12ZM129.212 13V4.27273H130.507V5.63636H130.621C130.803 5.17045 131.096 4.80871 131.501 4.55114C131.907 4.28977 132.393 4.15909 132.962 4.15909C133.537 4.15909 134.017 4.28977 134.399 4.55114C134.786 4.80871 135.087 5.17045 135.303 5.63636H135.393C135.617 5.18561 135.952 4.82765 136.399 4.5625C136.846 4.29356 137.382 4.15909 138.007 4.15909C138.787 4.15909 139.426 4.40341 139.922 4.89205C140.418 5.37689 140.666 6.13258 140.666 7.15909V13H139.325V7.15909C139.325 6.51515 139.149 6.05492 138.797 5.77841C138.445 5.50189 138.03 5.36364 137.553 5.36364C136.939 5.36364 136.464 5.54924 136.126 5.92045C135.789 6.28788 135.621 6.75379 135.621 7.31818V13H134.257V7.02273C134.257 6.52652 134.096 6.12689 133.774 5.82386C133.452 5.51705 133.037 5.36364 132.53 5.36364C132.181 5.36364 131.856 5.45644 131.553 5.64205C131.253 5.82765 131.011 6.08523 130.825 6.41477C130.643 6.74053 130.553 7.11742 130.553 7.54545V13H129.212ZM143.118 13V4.27273H144.459V13H143.118ZM143.8 2.81818C143.538 2.81818 143.313 2.72917 143.124 2.55114C142.938 2.37311 142.845 2.15909 142.845 1.90909C142.845 1.65909 142.938 1.44508 143.124 1.26705C143.313 1.08902 143.538 1 143.8 1C144.061 1 144.285 1.08902 144.47 1.26705C144.66 1.44508 144.754 1.65909 144.754 1.90909C144.754 2.15909 144.66 2.37311 144.47 2.55114C144.285 2.72917 144.061 2.81818 143.8 2.81818ZM148.256 1.36364V13H146.915V1.36364H148.256ZM151.575 16.2727C151.348 16.2727 151.145 16.2538 150.967 16.2159C150.789 16.1818 150.666 16.1477 150.598 16.1136L150.939 14.9318C151.265 15.0152 151.553 15.0455 151.803 15.0227C152.053 15 152.274 14.8883 152.467 14.6875C152.664 14.4905 152.844 14.1705 153.007 13.7273L153.257 13.0455L150.03 4.27273H151.484L153.893 11.2273H153.984L156.393 4.27273H157.848L154.143 14.2727C153.977 14.7235 153.77 15.0966 153.524 15.392C153.278 15.6913 152.992 15.9129 152.666 16.0568C152.344 16.2008 151.981 16.2727 151.575 16.2727ZM164.618 7.38636V8.63636H159.527V7.38636H164.618ZM168.568 1.36364V13H167.159V1.36364H168.568ZM172.553 7.75V13H171.212V4.27273H172.507V5.63636H172.621C172.825 5.19318 173.136 4.83712 173.553 4.56818C173.969 4.29545 174.507 4.15909 175.166 4.15909C175.757 4.15909 176.274 4.2803 176.717 4.52273C177.161 4.76136 177.505 5.125 177.751 5.61364C177.998 6.09848 178.121 6.71212 178.121 7.45455V13H176.78V7.54545C176.78 6.85985 176.602 6.32576 176.246 5.94318C175.89 5.55682 175.401 5.36364 174.78 5.36364C174.352 5.36364 173.969 5.45644 173.632 5.64205C173.299 5.82765 173.036 6.09848 172.842 6.45455C172.649 6.81061 172.553 7.24242 172.553 7.75ZM184.366 4.27273V5.40909H179.844V4.27273H184.366ZM181.162 2.18182H182.503V10.5C182.503 10.8788 182.558 11.1629 182.668 11.3523C182.781 11.5379 182.925 11.6629 183.099 11.7273C183.277 11.7879 183.465 11.8182 183.662 11.8182C183.81 11.8182 183.931 11.8106 184.026 11.7955C184.12 11.7765 184.196 11.7614 184.253 11.75L184.526 12.9545C184.435 12.9886 184.308 13.0227 184.145 13.0568C183.982 13.0947 183.776 13.1136 183.526 13.1136C183.147 13.1136 182.776 13.0322 182.412 12.8693C182.052 12.7064 181.753 12.4583 181.514 12.125C181.279 11.7917 181.162 11.3712 181.162 10.8636V2.18182ZM189.949 13.1818C189.108 13.1818 188.383 12.9962 187.773 12.625C187.167 12.25 186.699 11.7273 186.369 11.0568C186.044 10.3826 185.881 9.59848 185.881 8.70455C185.881 7.81061 186.044 7.02273 186.369 6.34091C186.699 5.6553 187.157 5.12121 187.744 4.73864C188.335 4.35227 189.025 4.15909 189.812 4.15909C190.267 4.15909 190.716 4.23485 191.159 4.38636C191.602 4.53788 192.006 4.78409 192.369 5.125C192.733 5.46212 193.023 5.90909 193.239 6.46591C193.455 7.02273 193.562 7.70833 193.562 8.52273V9.09091H186.835V7.93182H192.199C192.199 7.43939 192.1 7 191.903 6.61364C191.71 6.22727 191.434 5.92235 191.074 5.69886C190.718 5.47538 190.297 5.36364 189.812 5.36364C189.278 5.36364 188.816 5.49621 188.426 5.76136C188.04 6.02273 187.742 6.36364 187.534 6.78409C187.326 7.20455 187.222 7.6553 187.222 8.13636V8.90909C187.222 9.56818 187.335 10.1269 187.562 10.5852C187.794 11.0398 188.114 11.3864 188.523 11.625C188.932 11.8598 189.407 11.9773 189.949 11.9773C190.301 11.9773 190.619 11.928 190.903 11.8295C191.191 11.7273 191.439 11.5758 191.648 11.375C191.856 11.1705 192.017 10.9167 192.131 10.6136L193.426 10.9773C193.29 11.4167 193.061 11.803 192.739 12.1364C192.417 12.4659 192.019 12.7235 191.545 12.9091C191.072 13.0909 190.54 13.1818 189.949 13.1818ZM195.602 13V4.27273H196.898V5.59091H196.989C197.148 5.15909 197.436 4.80871 197.852 4.53977C198.269 4.27083 198.739 4.13636 199.261 4.13636C199.36 4.13636 199.483 4.13826 199.631 4.14205C199.778 4.14583 199.89 4.15152 199.966 4.15909V5.52273C199.92 5.51136 199.816 5.49432 199.653 5.47159C199.494 5.44508 199.326 5.43182 199.148 5.43182C198.723 5.43182 198.345 5.52083 198.011 5.69886C197.682 5.87311 197.42 6.11553 197.227 6.42614C197.038 6.73295 196.943 7.08333 196.943 7.47727V13H195.602ZM202.714 1.36364V5.36364H201.464V1.36364H202.714ZM205.624 1.36364V5.36364H204.374V1.36364H205.624Z" fill="#FF6666"/>
</svg>
